{
	"asset":{
		"generator":"Khronos glTF Blender I/O v4.2.60",
		"version":"2.0"
	},
	"scene":0,
	"scenes":[
		{
			"name":"Scene",
			"nodes":[
				0
			]
		}
	],
	"nodes":[
		{
			"mesh":0,
			"name":"model",
			"rotation":[
				0.7071067690849304,
				0,
				0,
				0.7071068286895752
			],
			"scale":[
				2.8022708892822266,
				2.8022708892822266,
				2.8022708892822266
			],
			"translation":[
				0,
				2.675884962081909,
				0
			]
		}
	],
	"materials":[
		{
			"doubleSided":true,
			"name":"Material.002",
			"normalTexture":{
				"index":0
			},
			"pbrMetallicRoughness":{
				"baseColorTexture":{
					"index":1
				},
				"metallicRoughnessTexture":{
					"index":2
				}
			}
		}
	],
	"meshes":[
		{
			"name":"model.002",
			"primitives":[
				{
					"attributes":{
						"POSITION":0,
						"NORMAL":1,
						"TEXCOORD_0":2
					},
					"indices":3,
					"material":0
				}
			]
		}
	],
	"textures":[
		{
			"sampler":0,
			"source":0
		},
		{
			"sampler":0,
			"source":1
		},
		{
			"sampler":0,
			"source":2
		}
	],
	"images":[
		{
			"mimeType":"image/png",
			"name":"texture_normal.png.002",
			"uri":"../../../../../8vo%20Semestre/TALLER%202/donbosco/Pbr/texture_normal.png"
		},
		{
			"mimeType":"image/png",
			"name":"texture_diffuse.png.002",
			"uri":"../../../../../8vo%20Semestre/TALLER%202/donbosco/Pbr/texture_diffuse.png"
		},
		{
			"mimeType":"image/png",
			"name":"texture_roughness.png.002",
			"uri":"../../../../../8vo%20Semestre/TALLER%202/donbosco/Pbr/texture_roughness.png"
		}
	],
	"accessors":[
		{
			"bufferView":0,
			"componentType":5126,
			"count":18900,
			"max":[
				0.31300801038742065,
				0.23103800415992737,
				0.9528509974479675
			],
			"min":[
				-0.3139129877090454,
				-0.22942900657653809,
				-0.9516199827194214
			],
			"type":"VEC3"
		},
		{
			"bufferView":1,
			"componentType":5126,
			"count":18900,
			"type":"VEC3"
		},
		{
			"bufferView":2,
			"componentType":5126,
			"count":18900,
			"type":"VEC2"
		},
		{
			"bufferView":3,
			"componentType":5123,
			"count":98250,
			"type":"SCALAR"
		}
	],
	"bufferViews":[
		{
			"buffer":0,
			"byteLength":226800,
			"byteOffset":0,
			"target":34962
		},
		{
			"buffer":0,
			"byteLength":226800,
			"byteOffset":226800,
			"target":34962
		},
		{
			"buffer":0,
			"byteLength":151200,
			"byteOffset":453600,
			"target":34962
		},
		{
			"buffer":0,
			"byteLength":196500,
			"byteOffset":604800,
			"target":34963
		}
	],
	"samplers":[
		{
			"magFilter":9729,
			"minFilter":9987
		}
	],
	"buffers":[
		{
			"byteLength":801300,
			"uri":"donbosco.bin"
		}
	]
}
